<?xml version="1.0" encoding="UTF-8" standalone="no"?>
<!DOCTYPE svg PUBLIC "-//W3C//DTD SVG 1.1//EN"
 "http://www.w3.org/Graphics/SVG/1.1/DTD/svg11.dtd">
<!-- Generated by graphviz version 2.44.0 ()
 -->
<!-- Pages: 1 -->
<svg width="1104pt" height="404pt"
 viewBox="0.00 0.00 1104.50 404.00" xmlns="http://www.w3.org/2000/svg" xmlns:xlink="http://www.w3.org/1999/xlink">
<g id="graph0" class="graph" transform="scale(1 1) rotate(0) translate(4 400)">
<polygon fill="white" stroke="transparent" points="-4,4 -4,-400 1100.5,-400 1100.5,4 -4,4"/>
<!-- [root] aws_eip.ip (expand) -->
<g id="node1" class="node">
<title>[root] aws_eip.ip (expand)</title>
<polygon fill="none" stroke="black" points="596.17,-252 504.17,-252 504.17,-216 596.17,-216 596.17,-252"/>
<text text-anchor="middle" x="550.17" y="-230.3" font-family="Times,serif" font-size="14.00">aws_eip.ip</text>
</g>
<!-- [root] aws_instance.web (expand) -->
<g id="node2" class="node">
<title>[root] aws_instance.web (expand)</title>
<polygon fill="none" stroke="black" points="618.67,-180 481.67,-180 481.67,-144 618.67,-144 618.67,-180"/>
<text text-anchor="middle" x="550.17" y="-158.3" font-family="Times,serif" font-size="14.00">aws_instance.web</text>
</g>
<!-- [root] aws_eip.ip (expand)&#45;&gt;[root] aws_instance.web (expand) -->
<g id="edge1" class="edge">
<title>[root] aws_eip.ip (expand)&#45;&gt;[root] aws_instance.web (expand)</title>
<path fill="none" stroke="black" d="M550.17,-215.7C550.17,-207.98 550.17,-198.71 550.17,-190.11"/>
<polygon fill="black" stroke="black" points="553.67,-190.1 550.17,-180.1 546.67,-190.1 553.67,-190.1"/>
</g>
<!-- [root] data.aws_ami.ubuntu (expand) -->
<g id="node4" class="node">
<title>[root] data.aws_ami.ubuntu (expand)</title>
<polygon fill="none" stroke="black" points="629.67,-108 470.67,-108 470.67,-72 629.67,-72 629.67,-108"/>
<text text-anchor="middle" x="550.17" y="-86.3" font-family="Times,serif" font-size="14.00">data.aws_ami.ubuntu</text>
</g>
<!-- [root] aws_instance.web (expand)&#45;&gt;[root] data.aws_ami.ubuntu (expand) -->
<g id="edge2" class="edge">
<title>[root] aws_instance.web (expand)&#45;&gt;[root] data.aws_ami.ubuntu (expand)</title>
<path fill="none" stroke="black" d="M550.17,-143.7C550.17,-135.98 550.17,-126.71 550.17,-118.11"/>
<polygon fill="black" stroke="black" points="553.67,-118.1 550.17,-108.1 546.67,-118.1 553.67,-118.1"/>
</g>
<!-- [root] aws_instance.web2 (expand) -->
<g id="node3" class="node">
<title>[root] aws_instance.web2 (expand)</title>
<polygon fill="none" stroke="black" points="486.17,-252 342.17,-252 342.17,-216 486.17,-216 486.17,-252"/>
<text text-anchor="middle" x="414.17" y="-230.3" font-family="Times,serif" font-size="14.00">aws_instance.web2</text>
</g>
<!-- [root] aws_instance.web2 (expand)&#45;&gt;[root] aws_instance.web (expand) -->
<g id="edge3" class="edge">
<title>[root] aws_instance.web2 (expand)&#45;&gt;[root] aws_instance.web (expand)</title>
<path fill="none" stroke="black" d="M447.44,-215.88C465.63,-206.51 488.36,-194.81 507.81,-184.8"/>
<polygon fill="black" stroke="black" points="509.48,-187.88 516.77,-180.19 506.28,-181.65 509.48,-187.88"/>
</g>
<!-- [root] provider[&quot;registry.terraform.io/hashicorp/aws&quot;] -->
<g id="node5" class="node">
<title>[root] provider[&quot;registry.terraform.io/hashicorp/aws&quot;]</title>
<polygon fill="none" stroke="black" points="339.17,-36 -0.17,-18 339.17,0 678.51,-18 339.17,-36"/>
<text text-anchor="middle" x="339.17" y="-14.3" font-family="Times,serif" font-size="14.00">provider[&quot;registry.terraform.io/hashicorp/aws&quot;]</text>
</g>
<!-- [root] data.aws_ami.ubuntu (expand)&#45;&gt;[root] provider[&quot;registry.terraform.io/hashicorp/aws&quot;] -->
<g id="edge4" class="edge">
<title>[root] data.aws_ami.ubuntu (expand)&#45;&gt;[root] provider[&quot;registry.terraform.io/hashicorp/aws&quot;]</title>
<path fill="none" stroke="black" d="M498.82,-71.97C466.87,-61.37 425.83,-47.75 393.36,-36.98"/>
<polygon fill="black" stroke="black" points="394.18,-33.56 383.58,-33.73 391.97,-40.21 394.18,-33.56"/>
</g>
<!-- [root] var.hash_commit -->
<g id="node6" class="node">
<title>[root] var.hash_commit</title>
<polygon fill="none" stroke="black" points="819.67,-36 696.67,-36 696.67,0 825.67,0 825.67,-30 819.67,-36"/>
<polyline fill="none" stroke="black" points="819.67,-36 819.67,-30 "/>
<polyline fill="none" stroke="black" points="825.67,-30 819.67,-30 "/>
<text text-anchor="middle" x="761.17" y="-14.3" font-family="Times,serif" font-size="14.00">var.hash_commit</text>
</g>
<!-- [root] data.aws_ami.ubuntu (expand)&#45;&gt;[root] var.hash_commit -->
<g id="edge5" class="edge">
<title>[root] data.aws_ami.ubuntu (expand)&#45;&gt;[root] var.hash_commit</title>
<path fill="none" stroke="black" d="M601.52,-71.97C631.13,-62.14 668.54,-49.73 699.71,-39.39"/>
<polygon fill="black" stroke="black" points="701.2,-42.58 709.59,-36.11 699,-35.94 701.2,-42.58"/>
</g>
<!-- [root] var.servers -->
<g id="node7" class="node">
<title>[root] var.servers</title>
<polygon fill="none" stroke="black" points="1068.67,-252 975.67,-252 975.67,-216 1074.67,-216 1074.67,-246 1068.67,-252"/>
<polyline fill="none" stroke="black" points="1068.67,-252 1068.67,-246 "/>
<polyline fill="none" stroke="black" points="1074.67,-246 1068.67,-246 "/>
<text text-anchor="middle" x="1025.17" y="-230.3" font-family="Times,serif" font-size="14.00">var.servers</text>
</g>
<!-- [root] meta.count&#45;boundary (EachMode fixup) -->
<g id="node8" class="node">
<title>[root] meta.count&#45;boundary (EachMode fixup)</title>
<ellipse fill="none" stroke="black" cx="876.17" cy="-306" rx="220.16" ry="18"/>
<text text-anchor="middle" x="876.17" y="-302.3" font-family="Times,serif" font-size="14.00">[root] meta.count&#45;boundary (EachMode fixup)</text>
</g>
<!-- [root] meta.count&#45;boundary (EachMode fixup)&#45;&gt;[root] aws_eip.ip (expand) -->
<g id="edge6" class="edge">
<title>[root] meta.count&#45;boundary (EachMode fixup)&#45;&gt;[root] aws_eip.ip (expand)</title>
<path fill="none" stroke="black" d="M784.68,-289.62C734.48,-280.58 671,-268.19 606.26,-252.14"/>
<polygon fill="black" stroke="black" points="606.83,-248.68 596.28,-249.64 605.13,-255.47 606.83,-248.68"/>
</g>
<!-- [root] meta.count&#45;boundary (EachMode fixup)&#45;&gt;[root] aws_instance.web2 (expand) -->
<g id="edge7" class="edge">
<title>[root] meta.count&#45;boundary (EachMode fixup)&#45;&gt;[root] aws_instance.web2 (expand)</title>
<path fill="none" stroke="black" d="M758.27,-290.72C685.42,-281.39 589.8,-268.24 496.45,-252.16"/>
<polygon fill="black" stroke="black" points="497,-248.71 486.55,-250.45 495.8,-255.61 497,-248.71"/>
</g>
<!-- [root] meta.count&#45;boundary (EachMode fixup)&#45;&gt;[root] var.servers -->
<g id="edge9" class="edge">
<title>[root] meta.count&#45;boundary (EachMode fixup)&#45;&gt;[root] var.servers</title>
<path fill="none" stroke="black" d="M911.86,-288.23C932.2,-278.68 957.89,-266.61 979.67,-256.38"/>
<polygon fill="black" stroke="black" points="981.17,-259.54 988.74,-252.12 978.2,-253.2 981.17,-259.54"/>
</g>
<!-- [root] output.ip_address (expand) -->
<g id="node9" class="node">
<title>[root] output.ip_address (expand)</title>
<ellipse fill="none" stroke="black" cx="786.17" cy="-234" rx="171.67" ry="18"/>
<text text-anchor="middle" x="786.17" y="-230.3" font-family="Times,serif" font-size="14.00">[root] output.ip_address (expand)</text>
</g>
<!-- [root] meta.count&#45;boundary (EachMode fixup)&#45;&gt;[root] output.ip_address (expand) -->
<g id="edge8" class="edge">
<title>[root] meta.count&#45;boundary (EachMode fixup)&#45;&gt;[root] output.ip_address (expand)</title>
<path fill="none" stroke="black" d="M854.38,-288.05C842.86,-279.09 828.54,-267.96 816,-258.2"/>
<polygon fill="black" stroke="black" points="818.11,-255.41 808.07,-252.03 813.81,-260.93 818.11,-255.41"/>
</g>
<!-- [root] output.ip_address (expand)&#45;&gt;[root] aws_instance.web (expand) -->
<g id="edge10" class="edge">
<title>[root] output.ip_address (expand)&#45;&gt;[root] aws_instance.web (expand)</title>
<path fill="none" stroke="black" d="M731.73,-216.85C697.76,-206.78 653.78,-193.73 617.61,-183"/>
<polygon fill="black" stroke="black" points="618.21,-179.53 607.63,-180.04 616.22,-186.24 618.21,-179.53"/>
</g>
<!-- [root] provider[&quot;registry.terraform.io/hashicorp/aws&quot;] (close) -->
<g id="node10" class="node">
<title>[root] provider[&quot;registry.terraform.io/hashicorp/aws&quot;] (close)</title>
<ellipse fill="none" stroke="black" cx="324.17" cy="-306" rx="313.04" ry="18"/>
<text text-anchor="middle" x="324.17" y="-302.3" font-family="Times,serif" font-size="14.00">[root] provider[&quot;registry.terraform.io/hashicorp/aws&quot;] (close)</text>
</g>
<!-- [root] provider[&quot;registry.terraform.io/hashicorp/aws&quot;] (close)&#45;&gt;[root] aws_eip.ip (expand) -->
<g id="edge11" class="edge">
<title>[root] provider[&quot;registry.terraform.io/hashicorp/aws&quot;] (close)&#45;&gt;[root] aws_eip.ip (expand)</title>
<path fill="none" stroke="black" d="M378.3,-288.23C413.39,-277.36 459,-263.24 494.41,-252.27"/>
<polygon fill="black" stroke="black" points="495.59,-255.57 504.11,-249.27 493.52,-248.88 495.59,-255.57"/>
</g>
<!-- [root] provider[&quot;registry.terraform.io/hashicorp/aws&quot;] (close)&#45;&gt;[root] aws_instance.web2 (expand) -->
<g id="edge12" class="edge">
<title>[root] provider[&quot;registry.terraform.io/hashicorp/aws&quot;] (close)&#45;&gt;[root] aws_instance.web2 (expand)</title>
<path fill="none" stroke="black" d="M346.42,-287.7C357.75,-278.88 371.7,-268.03 383.99,-258.47"/>
<polygon fill="black" stroke="black" points="386.43,-261.01 392.18,-252.1 382.14,-255.48 386.43,-261.01"/>
</g>
<!-- [root] root -->
<g id="node11" class="node">
<title>[root] root</title>
<ellipse fill="none" stroke="black" cx="600.17" cy="-378" rx="64.19" ry="18"/>
<text text-anchor="middle" x="600.17" y="-374.3" font-family="Times,serif" font-size="14.00">[root] root</text>
</g>
<!-- [root] root&#45;&gt;[root] meta.count&#45;boundary (EachMode fixup) -->
<g id="edge13" class="edge">
<title>[root] root&#45;&gt;[root] meta.count&#45;boundary (EachMode fixup)</title>
<path fill="none" stroke="black" d="M646.05,-365.36C688.59,-354.57 752.62,-338.34 802.34,-325.72"/>
<polygon fill="black" stroke="black" points="803.25,-329.1 812.08,-323.25 801.53,-322.32 803.25,-329.1"/>
</g>
<!-- [root] root&#45;&gt;[root] provider[&quot;registry.terraform.io/hashicorp/aws&quot;] (close) -->
<g id="edge14" class="edge">
<title>[root] root&#45;&gt;[root] provider[&quot;registry.terraform.io/hashicorp/aws&quot;] (close)</title>
<path fill="none" stroke="black" d="M554.28,-365.36C512.18,-354.68 449.02,-338.66 399.51,-326.11"/>
<polygon fill="black" stroke="black" points="400.36,-322.71 389.8,-323.65 398.64,-329.5 400.36,-322.71"/>
</g>
</g>
</svg>
